<?xml version="1.0" standalone="no"?>
<!DOCTYPE svg PUBLIC "-//W3C//DTD SVG 20010904//EN"
 "http://www.w3.org/TR/2001/REC-SVG-20010904/DTD/svg10.dtd">
<svg version="1.0" xmlns="http://www.w3.org/2000/svg"
 width="1098.000000pt" height="378.000000pt" viewBox="0 0 1098.000000 378.000000"
 preserveAspectRatio="xMidYMid meet">
<metadata>
Created by potrace 1.15, written by Peter Selinger 2001-2017
</metadata>
<g transform="translate(0.000000,378.000000) scale(0.100000,-0.100000)"
fill="#000000" stroke="none">
<path d="M10119 2936 c-17 -21 -20 -21 -409 -21 -375 0 -392 1 -406 19 -7 11
-15 18 -17 15 -6 -7 -27 -313 -22 -317 2 -3 16 22 30 54 14 32 37 73 52 92 75
99 236 136 262 60 15 -44 15 -794 0 -837 -13 -36 -41 -51 -95 -51 -19 0 -34
-3 -34 -7 0 -5 99 -8 220 -8 211 0 273 6 173 18 -88 10 -84 -11 -81 473 2 331
6 426 16 436 8 8 36 13 70 13 104 -1 195 -79 224 -193 6 -23 14 -44 18 -47 7
-4 25 314 18 320 -2 2 -10 -7 -19 -19z"/>
<path d="M1288 2920 c-160 -27 -300 -108 -383 -222 -138 -187 -107 -471 69
-636 110 -102 223 -142 404 -142 123 0 280 29 302 55 7 8 16 49 21 92 5 43 11
95 14 116 3 20 2 37 -2 37 -5 0 -21 -26 -38 -57 -42 -82 -124 -166 -187 -193
-69 -29 -157 -29 -226 0 -63 27 -149 115 -185 190 -105 217 -83 515 47 646 68
67 129 88 235 82 129 -8 223 -69 296 -193 21 -37 41 -63 43 -57 8 24 -18 236
-30 244 -56 36 -266 57 -380 38z"/>
<path d="M5775 2924 c-11 -2 -45 -9 -75 -15 -30 -6 -93 -29 -140 -51 -244
-117 -345 -369 -250 -621 57 -150 187 -259 359 -303 93 -23 310 -15 403 15 37
12 69 25 72 30 9 13 28 195 24 222 -3 20 -9 14 -38 -40 -78 -144 -175 -214
-297 -213 -208 1 -363 222 -363 517 0 149 34 255 107 336 62 68 102 84 218 84
90 0 105 -3 154 -28 67 -35 139 -110 172 -176 13 -28 28 -50 33 -51 4 0 6 24
2 53 -3 28 -8 82 -12 119 -3 37 -12 72 -18 77 -35 29 -284 61 -351 45z"/>
<path d="M7105 2923 c-59 -8 -141 -35 -206 -70 -167 -87 -259 -239 -259 -427
0 -210 102 -380 276 -463 69 -33 87 -37 181 -41 127 -6 191 7 293 56 173 85
290 264 290 449 0 316 -257 538 -575 496z m147 -61 c148 -65 238 -246 238
-474 -1 -223 -86 -383 -226 -424 -189 -55 -367 91 -420 346 -22 107 -15 305
14 379 40 103 89 154 181 188 49 18 155 11 213 -15z"/>
<path d="M8443 2920 c-168 -36 -263 -153 -232 -288 20 -90 55 -128 228 -248
131 -91 175 -138 196 -208 19 -64 19 -96 -2 -147 -12 -32 -26 -46 -57 -60
-118 -54 -228 15 -326 204 -25 48 -48 87 -52 87 -9 0 -9 -139 1 -225 l6 -60
60 -25 c53 -21 75 -24 185 -25 122 0 127 1 192 33 77 37 123 89 144 159 18 59
18 87 -1 150 -21 71 -76 129 -213 222 -142 97 -163 115 -196 165 -20 30 -26
52 -26 93 0 71 21 110 73 134 48 21 68 23 120 8 59 -16 102 -62 154 -165 26
-51 51 -94 56 -94 10 0 9 232 -2 248 -21 34 -220 61 -308 42z"/>
<path d="M2610 2853 c-235 -518 -348 -762 -374 -805 -34 -57 -85 -98 -122 -98
-13 0 -24 -3 -24 -7 0 -5 86 -8 190 -8 186 0 231 6 149 19 -28 5 -53 18 -75
40 -52 52 -47 90 30 261 l63 140 144 3 145 3 97 -198 c54 -109 97 -203 97
-210 0 -20 -30 -43 -56 -43 -13 0 -24 -3 -24 -7 0 -5 86 -8 190 -8 105 0 190
3 190 8 0 4 -8 7 -17 7 -46 0 -98 84 -323 528 -124 243 -231 442 -237 442 -7
0 -27 -30 -43 -67z m100 -405 c0 -5 -54 -8 -120 -8 -66 0 -120 2 -120 4 0 2
18 42 39 88 22 47 47 103 56 124 l16 39 64 -120 c36 -66 65 -123 65 -127z"/>
<path d="M3595 2900 c3 -5 15 -10 25 -10 24 0 86 -54 104 -89 11 -21 12 -93 5
-374 -8 -313 -10 -352 -28 -392 -20 -45 -69 -85 -103 -85 -10 0 -18 -3 -18 -7
0 -5 72 -8 160 -8 155 0 196 6 127 19 -19 3 -43 16 -54 29 -48 52 -48 54 -44
377 1 168 6 310 9 316 4 7 95 -155 202 -359 107 -204 200 -372 206 -374 6 -2
82 165 170 372 87 206 162 375 165 375 3 0 11 -120 18 -267 6 -148 15 -302 18
-345 5 -72 4 -77 -20 -102 -18 -18 -37 -26 -62 -26 -19 0 -35 -3 -35 -7 0 -5
90 -8 200 -8 110 0 200 3 200 8 0 4 -12 7 -26 7 -35 0 -63 17 -74 45 -12 31
-53 781 -45 823 7 38 53 72 97 72 15 0 30 5 33 10 4 6 -38 10 -118 10 -106 0
-126 -3 -139 -17 -8 -10 -79 -166 -157 -348 -79 -181 -147 -336 -151 -343 -4
-9 -75 114 -189 330 -101 188 -190 351 -199 361 -13 15 -34 17 -149 17 -87 0
-132 -4 -128 -10z"/>
<path d="M4025 1091 c-14 -6 -4 -8 31 -8 103 1 167 -74 166 -197 -1 -76 -20
-119 -65 -146 -106 -65 -230 29 -229 173 0 73 12 109 48 142 41 38 13 30 -33
-10 -59 -50 -80 -110 -65 -181 14 -68 42 -109 94 -135 48 -24 129 -27 179 -6
65 27 128 115 129 177 0 74 -53 160 -117 186 -35 15 -106 17 -138 5z"/>
<path d="M6095 1089 c-16 -8 -14 -8 11 -5 47 7 96 -10 131 -46 41 -43 53 -76
53 -150 0 -115 -52 -172 -148 -165 -43 3 -59 10 -88 38 -76 74 -84 221 -14
291 44 44 15 33 -35 -13 -66 -61 -83 -144 -46 -225 78 -172 350 -125 385 66 8
49 -17 130 -51 162 -53 51 -145 72 -198 47z"/>
<path d="M6549 1086 c-118 -42 -171 -162 -120 -271 25 -55 61 -85 119 -100 86
-23 167 5 225 78 57 69 47 199 -20 259 -49 45 -135 59 -204 34z m92 -6 c98
-27 151 -178 99 -285 -49 -101 -186 -101 -246 0 -64 109 -32 257 62 285 39 11
44 11 85 0z"/>
<path d="M6939 1077 c-29 -20 -34 -29 -37 -69 -3 -51 2 -57 113 -130 62 -41
83 -76 70 -115 -6 -15 -22 -33 -35 -40 -14 -7 -19 -13 -12 -13 22 0 71 29 82
49 13 25 13 77 0 101 -6 11 -42 38 -80 60 -98 57 -120 97 -84 148 28 40 97 23
135 -34 l19 -29 0 37 c0 32 -4 37 -31 47 -51 18 -103 13 -140 -12z"/>
<path d="M3470 1083 c29 -11 53 -39 107 -120 47 -74 53 -89 53 -135 0 -77 -8
-97 -41 -106 -19 -4 2 -7 61 -7 53 0 79 3 63 7 -37 10 -43 24 -43 102 0 64 3
76 40 136 44 73 84 115 115 123 11 3 -11 5 -50 6 -52 0 -66 -2 -52 -10 25 -15
21 -34 -19 -107 l-36 -64 -49 73 c-27 41 -49 78 -49 82 0 4 10 12 23 17 16 6
-1 9 -58 9 -44 -1 -73 -3 -65 -6z"/>
<path d="M4355 1081 l30 -6 5 -137 c6 -152 14 -174 81 -213 42 -24 122 -25
166 -2 55 29 67 66 73 212 5 126 6 130 30 142 22 11 18 13 -45 12 -38 -1 -61
-4 -50 -6 42 -11 45 -21 45 -150 0 -136 -10 -171 -55 -191 -36 -17 -100 -15
-135 3 -52 27 -61 60 -58 202 l3 128 30 6 c17 4 -9 7 -60 7 -51 0 -77 -3 -60
-7z"/>
<path d="M5088 1061 c-147 -93 -97 -331 74 -347 38 -3 40 -3 14 6 -70 23 -119
104 -120 196 0 71 22 117 74 151 49 34 12 28 -42 -6z"/>
<path d="M5455 1083 c39 -9 45 -31 45 -172 0 -159 -4 -177 -36 -188 -16 -5 2
-8 55 -8 51 0 72 3 58 8 -32 12 -37 25 -37 105 l0 72 115 0 115 0 0 -79 c0
-81 -6 -95 -44 -102 -11 -2 21 -4 70 -4 49 0 79 1 67 3 -40 6 -44 22 -41 193
l3 164 30 6 c17 4 -9 7 -60 7 -51 0 -77 -3 -60 -7 l30 -6 3 -83 3 -82 -116 0
-115 0 0 74 c0 76 6 89 45 99 11 2 -18 5 -65 5 -47 0 -76 -2 -65 -5z"/>
<path d="M7220 1081 l25 -7 3 -171 2 -171 -27 -10 c-21 -8 10 -10 122 -9 l150
2 3 45 3 45 -19 -31 c-11 -17 -34 -36 -51 -44 -37 -15 -110 -8 -122 12 -5 7
-9 46 -9 87 l0 74 70 -7 c60 -5 70 -4 70 10 0 13 -10 14 -70 8 l-70 -7 0 75
c0 44 5 79 12 86 7 7 35 12 63 12 52 0 83 -19 98 -60 3 -8 6 4 6 28 l1 42
-142 -1 c-79 -1 -132 -4 -118 -8z"/>
</g>
</svg>
